<?xml version="1.0" standalone="no"?>
<!DOCTYPE svg PUBLIC "-//W3C//DTD SVG 20010904//EN"
 "http://www.w3.org/TR/2001/REC-SVG-20010904/DTD/svg10.dtd">
<svg version="1.0" xmlns="http://www.w3.org/2000/svg"
 width="512.000000pt" height="512.000000pt" viewBox="0 0 512.000000 512.000000"
 preserveAspectRatio="xMidYMid meet">
<metadata>
Created by potrace 1.11, written by Peter Selinger 2001-2013
</metadata>
<g transform="translate(0.000000,512.000000) scale(0.100000,-0.100000)"
fill="#000000" stroke="none">
<path d="M0 2560 l0 -2560 2560 0 2560 0 0 2560 0 2560 -2560 0 -2560 0 0
-2560z m3916 1746 c127 -34 241 -128 295 -243 l31 -68 62 4 c77 4 154 -13 229
-51 270 -135 331 -490 124 -715 l-39 -43 30 -34 c157 -179 149 -445 -18 -617
-94 -96 -225 -146 -355 -136 -84 7 -141 26 -218 73 l-57 35 -45 -48 c-50 -54
-48 -46 -34 -208 19 -225 45 -288 141 -348 51 -32 57 -41 32 -51 -9 -3 -163
-6 -342 -6 -329 0 -382 6 -338 33 11 7 42 32 68 56 37 33 52 57 64 97 18 64
34 266 21 275 -5 4 -29 9 -54 13 -124 17 -268 129 -331 259 -18 37 -38 65 -43
61 -20 -12 -155 18 -217 48 -178 88 -285 300 -252 497 17 100 69 200 142 272
l58 58 -10 43 c-68 297 185 584 488 554 l62 -7 59 64 c65 69 129 109 212 131
69 19 170 20 235 2z m-1580 -576 c34 -16 78 -48 97 -69 43 -47 77 -136 77
-199 0 -50 -12 -72 -41 -72 -9 0 -22 -14 -30 -32 -11 -28 -10 -35 9 -69 29
-50 28 -65 -7 -77 -20 -7 -37 -25 -51 -52 -30 -59 -71 -75 -153 -59 -34 6 -66
16 -72 20 -14 14 -45 11 -45 -4 0 -8 7 -36 15 -63 13 -44 13 -50 0 -60 -14
-10 -13 -21 6 -91 l21 -79 93 -76 92 -77 72 6 c69 6 73 5 101 -22 38 -36 42
-98 9 -116 -13 -7 -25 -7 -31 -1 -9 9 -58 -3 -88 -23 -8 -6 -32 -10 -52 -11
-21 0 -40 -2 -42 -5 -3 -3 16 -84 42 -181 l46 -175 91 -1 c156 -1 286 -59 388
-172 291 -324 78 -840 -358 -867 -248 -16 -477 149 -540 388 -20 72 -19 202 1
270 38 129 130 249 240 311 56 31 56 31 50 70 -4 22 -12 53 -19 69 l-12 31
-197 -268 -196 -268 30 -35 c26 -30 29 -39 24 -75 -7 -42 -20 -58 -42 -49 -7
3 -14 -5 -16 -18 -2 -12 -14 -30 -28 -41 -25 -18 -27 -18 -95 3 -87 27 -141
53 -149 74 -4 11 -16 15 -38 13 -30 -3 -32 -6 -48 -68 -25 -103 -66 -178 -139
-250 -234 -232 -595 -208 -794 52 -182 240 -119 584 137 750 130 84 302 105
446 54 41 -15 80 -28 86 -29 6 -1 41 38 77 86 l65 89 -28 61 c-24 53 -32 62
-56 65 -53 5 -72 12 -103 38 -38 32 -49 80 -27 122 20 39 43 52 93 53 76 1 77
4 5 118 -75 120 -89 180 -57 250 28 63 190 193 323 260 88 44 254 99 331 108
58 7 63 10 49 23 -62 62 -49 196 28 297 82 108 271 142 410 73z"/>
<path d="M1856 2905 c-76 -53 -83 -61 -57 -74 11 -7 21 -19 21 -29 1 -11 34
-36 94 -71 102 -58 126 -87 126 -150 0 -35 -9 -51 -65 -121 -36 -44 -62 -80
-58 -80 4 0 67 9 138 20 72 11 133 20 138 20 12 0 8 24 -13 65 -26 51 -25 72
4 98 l24 21 -93 63 -93 62 -34 103 c-39 121 -52 128 -132 73z"/>
<path d="M1444 2416 c-9 -23 34 -96 55 -96 49 0 51 9 18 61 -32 48 -62 63 -73
35z"/>
<path d="M1937 2260 c-64 -10 -123 -20 -131 -23 -8 -3 -15 -32 -19 -79 -4 -40
-14 -138 -22 -217 -8 -79 -13 -146 -11 -148 4 -5 19 15 239 315 l127 172 -33
-1 c-17 -1 -85 -10 -150 -19z"/>
<path d="M1346 2025 c-3 -10 9 -35 35 -67 50 -63 82 -126 104 -201 18 -63 29
-71 40 -29 3 15 18 39 31 53 l25 26 -21 44 c-17 34 -41 57 -102 99 -44 30 -86
63 -93 73 -11 16 -13 16 -19 2z"/>
</g>
</svg>
