<?xml version="1.0" standalone="no"?>
<!DOCTYPE svg PUBLIC "-//W3C//DTD SVG 20010904//EN"
 "http://www.w3.org/TR/2001/REC-SVG-20010904/DTD/svg10.dtd">
<svg version="1.0" xmlns="http://www.w3.org/2000/svg"
 width="700.000000pt" height="700.000000pt" viewBox="0 0 700.000000 700.000000"
 preserveAspectRatio="xMidYMid meet">
<metadata>
Created by potrace 1.11, written by Peter Selinger 2001-2013
</metadata>
<g transform="translate(0.000000,700.000000) scale(0.100000,-0.100000)"
fill="#000000" stroke="none">
<path d="M5510 6979 c-41 -4 -95 -12 -120 -19 -105 -28 -243 -110 -321 -191
-57 -59 -72 -63 -239 -74 -41 -2 -84 -6 -95 -9 -137 -29 -217 -75 -330 -190
-72 -73 -98 -108 -131 -176 -23 -47 -45 -98 -48 -115 -3 -16 -9 -41 -12 -55
-3 -14 -6 -84 -5 -156 1 -155 -5 -173 -83 -259 -122 -133 -166 -248 -170 -445
-5 -204 52 -351 191 -487 129 -127 243 -188 373 -199 121 -10 156 -16 172 -31
10 -9 18 -20 18 -25 0 -43 172 -231 274 -299 54 -36 87 -49 202 -79 25 -6 43
-17 46 -28 6 -25 2 -231 -6 -277 -16 -98 -46 -160 -115 -235 -54 -59 -78 -106
-58 -112 7 -2 216 -4 465 -3 389 0 454 2 462 15 8 12 -10 34 -74 95 -94 89
-109 117 -131 241 -45 260 -39 452 16 497 28 23 52 19 145 -24 118 -54 175
-70 275 -76 201 -12 372 55 514 202 209 217 238 511 76 797 -66 118 -67 125
-25 173 49 56 101 168 128 277 28 109 29 254 2 353 -40 143 -183 313 -332 392
-92 48 -168 70 -278 78 -44 3 -91 11 -105 18 -15 7 -45 46 -75 97 -131 223
-364 349 -606 329z"/>
<path d="M4046 4393 c-1 -1 -58 -3 -126 -4 -313 -5 -585 -103 -815 -293 -149
-124 -275 -284 -354 -449 -39 -83 -94 -248 -107 -322 -4 -22 -9 -49 -11 -60
-9 -38 -11 -281 -3 -340 42 -317 168 -572 393 -791 184 -179 413 -299 672
-350 81 -16 165 -18 840 -20 530 -1 765 -5 800 -13 128 -31 250 -135 301 -259
36 -88 42 -216 13 -300 -54 -158 -182 -270 -339 -298 -19 -3 -749 -6 -1623 -6
l-1588 -1 -122 -160 c-67 -88 -156 -201 -197 -252 -41 -50 -88 -108 -105 -129
-34 -44 -46 -57 -98 -120 -116 -138 -167 -201 -167 -206 0 -3 899 -5 1998 -5
l1997 0 94 22 c110 27 226 66 296 101 59 29 189 108 218 131 154 125 232 210
322 349 77 120 158 316 179 432 22 127 26 166 26 275 1 98 -6 175 -22 245 -5
25 -12 56 -14 70 -10 50 -55 177 -90 250 -73 154 -207 328 -346 448 -50 43
-188 132 -263 170 -67 33 -221 88 -275 97 -19 3 -53 11 -75 17 -25 7 -234 12
-575 14 -294 2 -652 5 -795 7 l-260 2 -75 36 c-228 108 -319 364 -211 591 49
102 154 190 267 224 53 16 113 18 604 20 599 2 561 1 558 12 -4 21 30 73 82
124 84 82 115 183 115 377 l0 64 -55 19 c-128 43 -225 107 -351 231 l-49 47
-331 3 c-182 1 -332 1 -333 0z"/>
<path d="M1155 3510 c-22 -5 -58 -11 -79 -14 -218 -35 -471 -166 -647 -337
-202 -197 -312 -389 -374 -654 -28 -117 -34 -171 -36 -286 -3 -327 248 -835
753 -1517 209 -283 549 -696 560 -682 2 3 28 34 58 70 30 35 62 74 71 85 10
11 41 49 71 85 98 117 283 355 390 502 368 504 593 911 681 1233 19 68 22 105
21 240 -1 173 -16 266 -70 416 -130 365 -427 661 -799 797 -38 14 -124 37
-195 52 -64 14 -347 21 -405 10z m245 -874 c200 -26 358 -217 358 -431 0 -229
-173 -416 -401 -432 -128 -9 -235 28 -327 114 -147 136 -181 353 -84 529 56
101 150 178 255 208 84 23 103 24 199 12z"/>
</g>
</svg>
